<svg width="25" height="24" viewBox="0 0 25 24" fill="none" xmlns="http://www.w3.org/2000/svg">
<path d="M4.43835 11.5L3.95335 11.621C3.52068 11.7292 3.13656 11.9788 2.86206 12.3303C2.58756 12.6818 2.43842 13.115 2.43835 13.561V15.438C2.43842 15.884 2.58756 16.3172 2.86206 16.6687C3.13656 17.0202 3.52068 17.2698 3.95335 17.378L5.69335 17.813C5.78177 17.835 5.87404 17.8366 5.96316 17.8177C6.05229 17.7987 6.13593 17.7597 6.20773 17.7036C6.27953 17.6475 6.33762 17.5758 6.37758 17.4939C6.41754 17.412 6.43832 17.3221 6.43835 17.231V11.768C6.43836 11.6768 6.41756 11.5868 6.37755 11.5048C6.33753 11.4228 6.27935 11.351 6.20742 11.2949C6.1355 11.2388 6.05172 11.1998 5.96247 11.1809C5.87322 11.1621 5.78084 11.1638 5.69235 11.186L4.43835 11.5ZM4.43835 11.5V11C4.43835 8.87827 5.28121 6.84344 6.7815 5.34315C8.28179 3.84285 10.3166 3 12.4384 3C14.5601 3 16.5949 3.84285 18.0952 5.34315C19.5955 6.84344 20.4384 8.87827 20.4384 11V11.5M20.4384 11.5L20.9234 11.621C21.356 11.7292 21.7401 11.9788 22.0147 12.3303C22.2892 12.6818 22.4383 13.115 22.4384 13.561V15.438C22.4383 15.884 22.2892 16.3172 22.0147 16.6687C21.7401 17.0202 21.356 17.2698 20.9234 17.378L20.4384 17.5M20.4384 11.5L19.1834 11.186C19.0949 11.164 19.0027 11.1624 18.9135 11.1813C18.8244 11.2003 18.7408 11.2393 18.669 11.2954C18.5972 11.3515 18.5391 11.4232 18.4991 11.5051C18.4592 11.587 18.4384 11.6769 18.4384 11.768V17.231C18.4384 17.3221 18.4592 17.412 18.4991 17.4939C18.5391 17.5758 18.5972 17.6475 18.669 17.7036C18.7408 17.7597 18.8244 17.7987 18.9135 17.8177C19.0027 17.8366 19.0949 17.835 19.1834 17.813L20.4384 17.5M20.4384 17.5V18.5C20.4384 19.0304 20.2276 19.5391 19.8526 19.9142C19.4775 20.2893 18.9688 20.5 18.4384 20.5H15.4384M15.4384 20.5C15.4384 20.1022 15.2803 19.7206 14.999 19.4393C14.7177 19.158 14.3362 19 13.9384 19H10.9384C10.5405 19 10.159 19.158 9.87769 19.4393C9.59639 19.7206 9.43835 20.1022 9.43835 20.5C9.43835 20.8978 9.59639 21.2794 9.87769 21.5607C10.159 21.842 10.5405 22 10.9384 22H13.9384C14.3362 22 14.7177 21.842 14.999 21.5607C15.2803 21.2794 15.4384 20.8978 15.4384 20.5Z" stroke="black" stroke-width="1.5"/>
</svg>
